<svg width="126" height="112" viewBox="0 0 126 112" fill="none" xmlns="http://www.w3.org/2000/svg">
<path d="M75.4582 42.4104C75.8042 42.9756 76.543 43.1533 77.1082 42.8072C77.6734 42.4612 77.8511 41.7224 77.505 41.1572L75.4582 42.4104ZM53.3639 4.02571L52.3389 4.64973L52.3405 4.6523L53.3639 4.02571ZM49.737 2.00006L49.7333 3.20009L49.7433 3.20004L49.737 2.00006ZM46.1133 4.03567L47.1368 4.66227L47.14 4.65687L46.1133 4.03567ZM2.63631 75.0464L3.65777 75.6762L3.65972 75.673L2.63631 75.0464ZM6.25994 81.5676L6.25523 82.7676H6.25994V81.5676ZM60.346 82.7676C61.0087 82.7676 61.546 82.2303 61.546 81.5676C61.546 80.9048 61.0087 80.3676 60.346 80.3676V82.7676ZM96.0252 39.1316C96.0252 38.4688 95.488 37.9316 94.8252 37.9316C94.1625 37.9316 93.6252 38.4688 93.6252 39.1316H96.0252ZM124 100.133V101.333C124.663 101.333 125.2 100.796 125.2 100.133H124ZM124 94.8288H125.2C125.2 94.4461 125.017 94.0863 124.709 93.8603L124 94.8288ZM65.6505 94.8288L64.942 93.8603C64.6331 94.0863 64.4505 94.4461 64.4505 94.8288H65.6505ZM65.6505 100.133H64.4505C64.4505 100.796 64.9877 101.333 65.6505 101.333V100.133ZM49.737 28.5226H48.537V57.6973H49.737H50.937V28.5226H49.737ZM49.737 63.0018H48.537V70.9586H49.737H50.937V63.0018H49.737ZM76.4816 41.7838L77.505 41.1572L54.3873 3.39912L53.3639 4.02571L52.3405 4.6523L75.4582 42.4104L76.4816 41.7838ZM53.3639 4.02571L54.3889 3.40169C53.9027 2.60314 53.2183 1.94391 52.4021 1.48804L51.817 2.53572L51.2318 3.5834C51.6866 3.83741 52.068 4.20475 52.3389 4.64973L53.3639 4.02571ZM51.817 2.53572L52.4021 1.48804C51.5858 1.03218 50.6656 0.795183 49.7307 0.800074L49.737 2.00006L49.7433 3.20004C50.2642 3.19732 50.777 3.32938 51.2318 3.5834L51.817 2.53572ZM49.737 2.00006L49.7406 0.800063C48.8052 0.797237 47.885 1.03651 47.0695 1.49464L47.6572 2.54086L48.2449 3.58708C48.6994 3.33181 49.2121 3.19848 49.7333 3.20005L49.737 2.00006ZM47.6572 2.54086L47.0695 1.49464C46.254 1.95277 45.5709 2.61416 45.0866 3.41446L46.1133 4.03567L47.14 4.65687C47.4099 4.21091 47.7905 3.84236 48.2449 3.58708L47.6572 2.54086ZM46.1133 4.03567L45.0899 3.40907L1.61289 74.4198L2.63631 75.0464L3.65972 75.673L47.1367 4.66226L46.1133 4.03567ZM2.63631 75.0464L1.61485 74.4166C1.10422 75.2448 0.823447 76.1941 0.801406 77.1668L2.0011 77.194L3.20079 77.2212C3.21317 76.6747 3.3709 76.1414 3.65777 75.6762L2.63631 75.0464ZM2.0011 77.194L0.801406 77.1668C0.779364 78.1395 1.01685 79.1006 1.48944 79.9511L2.53838 79.3682L3.58732 78.7853C3.32183 78.3075 3.18841 77.7676 3.20079 77.2212L2.0011 77.194ZM2.53838 79.3682L1.48944 79.9511C1.96205 80.8016 2.65268 81.5107 3.49027 82.0057L4.10081 80.9727L4.71135 79.9396C4.24075 79.6615 3.85279 79.2631 3.58732 78.7853L2.53838 79.3682ZM4.10081 80.9727L3.49027 82.0057C4.32787 82.5008 5.28224 82.7638 6.25523 82.7676L6.25994 81.5676L6.26466 80.3676C5.71809 80.3654 5.18194 80.2177 4.71135 79.9396L4.10081 80.9727ZM6.25994 81.5676V82.7676H60.346V81.5676V80.3676H6.25994V81.5676ZM94.8252 39.1316H93.6252V44.4361H94.8252H96.0252V39.1316H94.8252ZM124 100.133H125.2V94.8288H124H122.8V100.133H124ZM124 94.8288L124.709 93.8603C121.696 91.6568 119.855 89.1854 118.75 86.3465C117.635 83.4808 117.243 80.1739 117.243 76.2631H116.043H114.843C114.843 80.309 115.244 83.9543 116.514 87.217C117.794 90.5064 119.932 93.3395 123.292 95.7973L124 94.8288ZM116.043 76.2631H117.243V65.6541H116.043H114.843V76.2631H116.043ZM116.043 65.6541H117.243C117.243 59.7084 114.881 54.0063 110.677 49.8021L109.829 50.6507L108.98 51.4992C112.734 55.2533 114.843 60.345 114.843 65.6541H116.043ZM109.829 50.6507L110.677 49.8021C106.473 45.5979 100.771 43.2361 94.8252 43.2361V44.4361V45.6361C100.134 45.6361 105.226 47.7451 108.98 51.4992L109.829 50.6507ZM94.8252 44.4361V43.2361C88.8796 43.2361 83.1775 45.5979 78.9733 49.8021L79.8219 50.6507L80.6704 51.4992C84.4245 47.7451 89.5161 45.6361 94.8252 45.6361V44.4361ZM79.8219 50.6507L78.9733 49.8021C74.7691 54.0063 72.4072 59.7084 72.4072 65.6541H73.6072H74.8072C74.8072 60.345 76.9163 55.2533 80.6704 51.4992L79.8219 50.6507ZM73.6072 65.6541H72.4072V76.2631H73.6072H74.8072V65.6541H73.6072ZM73.6072 76.2631H72.4072C72.4072 80.1739 72.0155 83.4808 70.9001 86.3465C69.7951 89.1854 67.9541 91.6568 64.942 93.8603L65.6505 94.8288L66.359 95.7973C69.7189 93.3395 71.8563 90.5064 73.1367 87.217C74.4066 83.9543 74.8072 80.309 74.8072 76.2631H73.6072ZM65.6505 94.8288H64.4505V100.133H65.6505H66.8505V94.8288H65.6505ZM65.6505 100.133V101.333H124V100.133V98.9333H65.6505V100.133ZM102.782 105.438H101.582C101.582 106.377 101.011 107.374 99.7854 108.191C98.5682 109.002 96.8178 109.542 94.8252 109.542V110.742V111.942C97.2254 111.942 99.4534 111.296 101.116 110.188C102.771 109.085 103.982 107.429 103.982 105.438H102.782ZM94.8252 110.742V109.542C92.8327 109.542 91.0823 109.002 89.8651 108.191C88.6395 107.374 88.0685 106.377 88.0685 105.438H86.8685H85.6685C85.6685 107.429 86.8794 109.085 88.5341 110.188C90.1971 111.296 92.425 111.942 94.8252 111.942V110.742Z" fill="currentColor"/>
<defs>
<linearGradient id="paint0_linear_134_654" x1="63" y1="2" x2="63" y2="110.742" gradientUnits="userSpaceOnUse">
<stop stop-color="#5A2FED"/>
<stop offset="1" stop-color="#C67EFF"/>
</linearGradient>
</defs>
</svg>
